<svg xmlns="http://www.w3.org/2000/svg" width="1200" height="630" viewBox="0 0 1200 630">
<defs><linearGradient id="bg" x1="0" y1="0" x2="1" y2="1"><stop offset="0" stop-color="#101827"/><stop offset="1" stop-color="#080b12"/></linearGradient><linearGradient id="mint" x1="0" y1="0" x2="1" y2="0"><stop offset="0" stop-color="#b8f36b"/><stop offset="1" stop-color="#8de9c4"/></linearGradient></defs>
<rect width="1200" height="630" rx="28" fill="url(#bg)"/><circle cx="1000" cy="80" r="280" fill="#4b6594" opacity=".12"/><rect x="76" y="72" width="50" height="50" rx="14" fill="#b8f36b"/><text x="101" y="106" font-family="Arial,sans-serif" font-size="30" font-weight="800" text-anchor="middle" fill="#11180a">A</text><text x="145" y="104" font-family="Arial,sans-serif" font-size="25" font-weight="700" fill="#eaf0ff">AI Workflow Toolkit</text>
<text x="76" y="220" font-family="Arial,sans-serif" font-size="56" font-weight="800" fill="#f0f4ff">Design safer workflows</text><text x="76" y="286" font-family="Arial,sans-serif" font-size="56" font-weight="800" fill="url(#mint)">before you automate.</text><text x="80" y="340" font-family="Arial,sans-serif" font-size="22" fill="#aebbd0">Blueprints · Approval gates · Test cases · n8n scaffolds</text>
<g transform="translate(710 390)"><rect width="400" height="62" rx="14" fill="#151e2d" stroke="#35435a"/><circle cx="28" cy="31" r="7" fill="#b8f36b"/><text x="50" y="37" font-family="Arial,sans-serif" font-size="18" fill="#eaf0ff">Validate inputs</text><path d="M200 62v20" stroke="#63718a" stroke-width="2"/><rect y="82" width="400" height="62" rx="14" fill="#151e2d" stroke="#35435a"/><circle cx="28" cy="113" r="7" fill="#9bb8ff"/><text x="50" y="119" font-family="Arial,sans-serif" font-size="18" fill="#eaf0ff">Human approval</text><path d="M200 144v20" stroke="#63718a" stroke-width="2"/><rect y="164" width="400" height="62" rx="14" fill="#151e2d" stroke="#35435a"/><circle cx="28" cy="195" r="7" fill="#b8f36b"/><text x="50" y="201" font-family="Arial,sans-serif" font-size="18" fill="#eaf0ff">Verify outcome</text></g>
<text x="76" y="566" font-family="Arial,sans-serif" font-size="17" fill="#7f8ca4">FREE WORKFLOW BUILDER FOR AGENCIES &amp; SOLO OPERATORS</text></svg>